<svg xmlns="http://www.w3.org/2000/svg" xmlns:xlink="http://www.w3.org/1999/xlink" version="1.1" width="256" height="256" viewBox="0 0 256 256" xml:space="preserve">
<desc>Created with Fabric.js 1.7.22</desc>
<defs>
</defs>
<g transform="translate(128 128) scale(0.72 0.72)" style="">
	<g style="stroke: none; stroke-width: 0; stroke-dasharray: none; stroke-linecap: butt; stroke-linejoin: miter; stroke-miterlimit: 10; fill: none; fill-rule: nonzero; opacity: 1;" transform="translate(-175.05 -175.05000000000004) scale(3.89 3.89)" >
	<path d="M 79.636 41.865 l -0.003 -0.001 c -2.515 -1.042 -2.71 -3.369 -2.71 -4.057 c -0.001 -0.689 0.195 -3.016 2.71 -4.058 c 1.268 -0.525 2.254 -1.512 2.779 -2.779 c 0.525 -1.267 0.525 -2.662 0 -3.93 l -3.345 -8.075 c -1.085 -2.614 -4.091 -3.863 -6.71 -2.777 c -2.517 1.043 -4.3 -0.465 -4.786 -0.952 c -0.487 -0.487 -1.995 -2.271 -0.952 -4.787 c 0.524 -1.267 0.524 -2.662 -0.001 -3.929 c -0.525 -1.268 -1.512 -2.255 -2.778 -2.779 l -8.075 -3.345 c -2.614 -1.082 -5.624 0.165 -6.709 2.78 C 48.015 5.688 45.689 5.884 45 5.884 s -3.016 -0.195 -4.058 -2.71 c -0.524 -1.268 -1.511 -2.255 -2.779 -2.78 c -1.267 -0.525 -2.662 -0.525 -3.931 0 L 26.16 3.738 c -1.268 0.525 -2.255 1.511 -2.78 2.779 s -0.525 2.663 0 3.93 c 1.043 2.515 -0.465 4.3 -0.952 4.786 c -0.486 0.487 -2.268 1.996 -4.786 0.953 c -1.267 -0.524 -2.663 -0.524 -3.931 0 c -1.268 0.525 -2.255 1.512 -2.779 2.779 l -3.344 8.073 c -0.525 1.268 -0.525 2.663 0 3.931 c 0.525 1.268 1.512 2.255 2.779 2.779 c 2.515 1.042 2.71 3.37 2.71 4.058 s -0.196 3.015 -2.713 4.058 c -2.615 1.085 -3.861 4.095 -2.778 6.709 l 3.344 8.074 c 0.525 1.268 1.512 2.254 2.779 2.779 c 1.266 0.524 2.662 0.525 3.93 0 c 2.515 -1.04 4.299 0.465 4.786 0.953 c 0.246 0.246 0.75 0.824 1.057 1.659 c 2.618 -3.386 6.007 -6.147 9.913 -7.998 c -5.061 -3.628 -8.376 -9.545 -8.376 -16.233 c 0 -11.016 8.963 -19.979 19.979 -19.979 c 11.017 0 19.98 8.963 19.98 19.979 c 0 6.688 -3.315 12.604 -8.376 16.232 c 3.905 1.851 7.294 4.611 9.912 7.996 c 0.307 -0.834 0.811 -1.411 1.057 -1.657 c 0.487 -0.487 2.268 -1.996 4.787 -0.952 c 2.616 1.08 5.624 -0.165 6.709 -2.78 l 3.345 -8.074 C 83.495 45.958 82.249 42.949 79.636 41.865 z" style="stroke: none; stroke-width: 1; stroke-dasharray: none; stroke-linecap: butt; stroke-linejoin: miter; stroke-miterlimit: 10; fill: rgb(0,0,0); fill-rule: nonzero; opacity: 1;" transform=" matrix(1 0 0 1 0 0) " stroke-linecap="round" />
	<path d="M 44.999 24.18 c -7.514 0 -13.626 6.113 -13.626 13.626 s 6.113 13.626 13.626 13.626 s 13.627 -6.113 13.627 -13.626 S 52.513 24.18 44.999 24.18 z" style="stroke: none; stroke-width: 1; stroke-dasharray: none; stroke-linecap: butt; stroke-linejoin: miter; stroke-miterlimit: 10; fill: rgb(0,0,0); fill-rule: nonzero; opacity: 1;" transform=" matrix(1 0 0 1 0 0) " stroke-linecap="round" />
	<path d="M 65.84 78.626 c 0 -11.759 -9.79 -21.274 -21.646 -20.825 C 32.917 58.228 24.16 67.853 24.16 79.138 V 85.7 c 0 2.374 1.925 4.299 4.299 4.299 L 61.541 90 c 2.374 0 4.299 -1.924 4.299 -4.299 V 78.626 z" style="stroke: none; stroke-width: 1; stroke-dasharray: none; stroke-linecap: butt; stroke-linejoin: miter; stroke-miterlimit: 10; fill: rgb(0,0,0); fill-rule: nonzero; opacity: 1;" transform=" matrix(1 0 0 1 0 0) " stroke-linecap="round" />
</g>
</g>
</svg>